<svg width="25" height="24" viewBox="0 0 25 24" fill="none" xmlns="http://www.w3.org/2000/svg">
<path d="M19.4129 16.8014H17.7787C17.1599 16.8014 16.9687 16.3094 15.8572 15.1829C14.8889 14.2454 14.4607 14.1194 14.2229 14.1194C13.8892 14.1194 13.7939 14.2147 13.7939 14.6752V16.1512C13.7939 16.5487 13.6672 16.7864 12.6194 16.7864C10.5059 16.6447 8.68941 15.4919 7.63491 13.8119L7.61916 13.7857C6.39516 12.2654 5.49291 10.4332 5.04666 8.42918L5.03016 8.34143C5.03016 8.10368 5.12541 7.88093 5.58591 7.88093H7.22016C7.63266 7.88093 7.79166 8.07143 7.95141 8.51543C8.75991 10.8494 10.1099 12.8969 10.6657 12.8969C10.8719 12.8969 10.9672 12.8017 10.9672 12.2782V9.86393C10.9034 8.75243 10.3162 8.65793 10.3162 8.26118C10.3229 8.04893 10.4969 7.87943 10.7099 7.87943C10.7167 7.87943 10.7227 7.87943 10.7294 7.88018H10.7287H13.3004C13.6499 7.88018 13.7767 8.07068 13.7767 8.48318V11.7382C13.7767 12.0869 13.9357 12.2144 14.0309 12.2144C14.2372 12.2144 14.4127 12.0869 14.7929 11.7067C15.5834 10.7414 16.2592 9.63743 16.7744 8.44718L16.8089 8.35718C16.9177 8.08493 17.1787 7.89593 17.4839 7.89593C17.4982 7.89593 17.5117 7.89668 17.5259 7.89743H17.5237H19.1579C19.6499 7.89743 19.7617 8.15018 19.6499 8.50043C18.9944 9.94418 18.2579 11.1847 17.4044 12.3337L17.4434 12.2782C17.2694 12.5639 17.2057 12.6907 17.4434 13.0094C17.6174 13.2472 18.1897 13.7392 18.5707 14.1839C19.1219 14.7292 19.5839 15.3637 19.9327 16.0642L19.9514 16.1054C20.1104 16.5644 19.8719 16.8029 19.4114 16.8029L19.4129 16.8014ZM15.9532 0.75293H9.04791C2.74566 0.75293 1.25391 2.24468 1.25391 8.54693V15.4522C1.25391 21.7544 2.74566 23.2462 9.04791 23.2462H15.9532C22.2554 23.2462 23.7472 21.7544 23.7472 15.4522V8.54693C23.7472 2.24468 22.2389 0.75293 15.9532 0.75293Z" fill="#1A1A1A"/>
</svg>
